<svg width="417" height="321" viewBox="0 0 417 321" fill="none" xmlns="http://www.w3.org/2000/svg">
<path d="M96.018 222.151L128.304 171.285L55.999 125.223L18.6591 184.052L78.464 222.151H96.018Z" fill="#F0F0F0"/>
<path d="M141.77 238.019H61.797V221.891H141.77V238.019ZM62.8356 236.978H140.731V222.931H62.8356V236.978Z" fill="#3F3D56"/>
<path d="M131.903 235.157C134.771 235.157 137.096 232.828 137.096 229.955C137.096 227.081 134.771 224.752 131.903 224.752C129.035 224.752 126.71 227.081 126.71 229.955C126.71 232.828 129.035 235.157 131.903 235.157Z" fill="#564E58"/>
<path d="M117.362 235.157C120.23 235.157 122.555 232.828 122.555 229.955C122.555 227.081 120.23 224.752 117.362 224.752C114.494 224.752 112.169 227.081 112.169 229.955C112.169 232.828 114.494 235.157 117.362 235.157Z" fill="#564E58"/>
<path d="M102.822 235.157C105.69 235.157 108.015 232.828 108.015 229.955C108.015 227.081 105.69 224.752 102.822 224.752C99.9539 224.752 97.6289 227.081 97.6289 229.955C97.6289 232.828 99.9539 235.157 102.822 235.157Z" fill="#564E58"/>
<path d="M88.2814 235.157C91.1495 235.157 93.4745 232.828 93.4745 229.955C93.4745 227.081 91.1495 224.752 88.2814 224.752C85.4134 224.752 83.0884 227.081 83.0884 229.955C83.0884 232.828 85.4134 235.157 88.2814 235.157Z" fill="#564E58"/>
<path d="M73.741 235.157C76.609 235.157 78.934 232.828 78.934 229.955C78.934 227.081 76.609 224.752 73.741 224.752C70.8729 224.752 68.5479 227.081 68.5479 229.955C68.5479 232.828 70.8729 235.157 73.741 235.157Z" fill="#564E58"/>
<path d="M236.802 58.7893V19.2496H256.535V0H159.945V96.7682H242.514V87.307C242.514 85.5433 242.861 83.7969 243.535 82.1675C244.208 80.5381 245.196 79.0575 246.441 77.8104C247.686 76.5633 249.163 75.5741 250.79 74.8991C252.416 74.2242 254.159 73.8768 255.92 73.8768H256.535V58.7893H236.802Z" fill="#F0F0F0"/>
<path d="M343.778 249.724H279.385V263.251H343.778V249.724Z" fill="#564E58"/>
<path d="M357.799 183.131H263.286V195.617H357.799V183.131Z" fill="#F0F0F0"/>
<path d="M404.017 319.96H0V321H404.017V319.96Z" fill="#3F3D56"/>
<path d="M373.994 321H255.92C252.228 320.996 248.689 319.525 246.078 316.909C243.468 314.294 241.999 310.748 241.995 307.05V87.307C241.999 83.6084 243.468 80.0625 246.078 77.4472C248.689 74.8319 252.228 73.3608 255.92 73.3566H373.994C377.686 73.3608 381.225 74.8319 383.836 77.4472C386.446 80.0625 387.915 83.6084 387.919 87.307V307.05C387.915 310.748 386.446 314.294 383.836 316.909C381.225 319.525 377.686 320.996 373.994 321ZM255.92 74.3971C252.503 74.401 249.228 75.7624 246.812 78.1826C244.396 80.6029 243.037 83.8843 243.034 87.307V307.05C243.037 310.472 244.396 313.754 246.812 316.174C249.228 318.594 252.503 319.956 255.92 319.959H373.994C377.411 319.956 380.686 318.594 383.102 316.174C385.518 313.754 386.877 310.472 386.88 307.05V87.307C386.877 83.8843 385.518 80.6029 383.102 78.1826C380.686 75.7624 377.411 74.401 373.994 74.3971H255.92Z" fill="#3F3D56"/>
<path d="M300.936 83.7617C300.32 83.7617 299.717 83.5787 299.205 83.2357C298.692 82.8927 298.293 82.4052 298.057 81.8348C297.821 81.2644 297.76 80.6367 297.88 80.0312C298 79.4257 298.297 78.8695 298.733 78.4329C299.168 77.9963 299.724 77.699 300.328 77.5786C300.932 77.4582 301.559 77.52 302.128 77.7562C302.698 77.9925 303.184 78.3926 303.527 78.9059C303.869 79.4193 304.052 80.0228 304.052 80.6402C304.051 81.4678 303.722 82.2613 303.138 82.8465C302.554 83.4317 301.762 83.7608 300.936 83.7617ZM300.936 78.5591C300.525 78.5591 300.123 78.6812 299.782 78.9099C299.44 79.1385 299.174 79.4635 299.017 79.8438C298.86 80.2241 298.818 80.6425 298.899 81.0462C298.979 81.4499 299.177 81.8207 299.467 82.1117C299.758 82.4027 300.128 82.6009 300.531 82.6812C300.934 82.7615 301.351 82.7203 301.731 82.5628C302.11 82.4053 302.435 82.1386 302.663 81.7964C302.891 81.4541 303.013 81.0518 303.013 80.6402C303.012 80.0884 302.793 79.5595 302.404 79.1693C302.015 78.7792 301.487 78.5597 300.936 78.5591Z" fill="#3F3D56"/>
<path d="M331.575 80.1199H308.725V81.1605H331.575V80.1199Z" fill="#3F3D56"/>
<path d="M378.572 88.4441V130.065C367.554 130.064 356.987 125.679 349.196 117.874C341.405 110.069 337.028 99.4824 337.027 88.4441H378.572Z" fill="#564E58"/>
<path d="M379.091 306.953H250.823V87.9238H379.091V306.953ZM251.862 305.912H378.052V88.9643H251.862V305.912Z" fill="#3F3D56"/>
<path opacity="0.1" d="M348.452 127.464C356.196 127.464 362.473 121.174 362.473 113.417C362.473 105.659 356.196 99.3695 348.452 99.3695C340.708 99.3695 334.431 105.659 334.431 113.417C334.431 121.174 340.708 127.464 348.452 127.464Z" fill="black"/>
<path d="M346.375 129.024C354.118 129.024 360.396 122.735 360.396 114.977C360.396 107.219 354.118 100.93 346.375 100.93C338.631 100.93 332.354 107.219 332.354 114.977C332.354 122.735 338.631 129.024 346.375 129.024Z" fill="#564E58"/>
<path d="M276.269 96.7682H256.535V104.052H276.269V96.7682Z" fill="#3F3D56"/>
<path d="M287.174 165.963H267.441V173.246H287.174V165.963Z" fill="#3F3D56"/>
<path d="M362.993 193.016H267.441V179.489H362.993V193.016ZM268.479 191.976H361.954V180.53H268.479V191.976Z" fill="#3F3D56"/>
<path d="M357.799 222.671H263.286V235.157H357.799V222.671Z" fill="#F0F0F0"/>
<path d="M287.174 205.502H267.441V212.786H287.174V205.502Z" fill="#3F3D56"/>
<path d="M362.993 232.556H267.441V219.029H362.993V232.556ZM268.479 231.515H361.954V220.07H268.479V231.515Z" fill="#3F3D56"/>
<path d="M347.933 260.13H282.501V245.562H347.933V260.13ZM283.539 259.089H346.894V246.603H283.539V259.089Z" fill="#3F3D56"/>
<path d="M360.396 187.814C360.396 188.885 360.066 189.93 359.451 190.806C358.836 191.682 357.966 192.347 356.96 192.709C355.954 193.072 354.861 193.114 353.83 192.831C352.799 192.548 351.88 191.953 351.199 191.128L351.194 191.122C350.698 190.519 350.343 189.812 350.157 189.052C349.972 188.293 349.959 187.501 350.12 186.736C350.282 185.971 350.614 185.253 351.09 184.634C351.567 184.015 352.177 183.512 352.875 183.162C353.573 182.812 354.341 182.624 355.121 182.612C355.901 182.6 356.674 182.764 357.382 183.092C358.091 183.421 358.716 183.905 359.211 184.509C359.707 185.113 360.061 185.821 360.245 186.581C360.245 186.581 360.246 186.582 360.246 186.583C360.246 186.583 360.246 186.584 360.247 186.584C360.247 186.585 360.248 186.585 360.249 186.585C360.249 186.586 360.25 186.586 360.251 186.586C360.347 186.988 360.395 187.4 360.396 187.814Z" fill="#564E58"/>
<path opacity="0.1" d="M360.396 187.814C360.396 188.885 360.066 189.93 359.451 190.806C358.836 191.682 357.966 192.347 356.96 192.709C355.954 193.072 354.861 193.114 353.83 192.831C352.799 192.548 351.88 191.953 351.199 191.128L351.194 191.122C351.098 190.72 351.049 190.308 351.049 189.895C351.049 188.824 351.379 187.779 351.994 186.903C352.608 186.026 353.478 185.362 354.484 184.999C355.49 184.637 356.583 184.594 357.614 184.877C358.646 185.16 359.564 185.755 360.245 186.581C360.245 186.581 360.245 186.582 360.246 186.583C360.246 186.583 360.246 186.584 360.247 186.584C360.247 186.585 360.248 186.585 360.249 186.585C360.249 186.586 360.25 186.586 360.251 186.586C360.346 186.988 360.395 187.4 360.396 187.814Z" fill="black"/>
<path d="M357.28 196.138C360.148 196.138 362.473 193.808 362.473 190.935C362.473 188.062 360.148 185.733 357.28 185.733C354.412 185.733 352.087 188.062 352.087 190.935C352.087 193.808 354.412 196.138 357.28 196.138Z" fill="#564E58"/>
<path d="M360.396 227.353C360.396 228.424 360.066 229.469 359.451 230.345C358.836 231.222 357.966 231.886 356.96 232.249C355.954 232.611 354.861 232.654 353.83 232.371C352.799 232.088 351.88 231.493 351.199 230.667L351.194 230.662C350.698 230.059 350.343 229.351 350.157 228.592C349.972 227.833 349.959 227.041 350.12 226.276C350.282 225.511 350.614 224.793 351.09 224.174C351.567 223.555 352.177 223.052 352.875 222.702C353.573 222.351 354.341 222.163 355.121 222.151C355.901 222.139 356.674 222.304 357.382 222.632C358.091 222.961 358.716 223.445 359.211 224.049C359.707 224.653 360.061 225.361 360.245 226.12C360.245 226.121 360.246 226.122 360.246 226.122C360.246 226.123 360.246 226.124 360.247 226.124C360.247 226.125 360.248 226.125 360.249 226.125C360.249 226.125 360.25 226.126 360.251 226.126C360.347 226.528 360.395 226.94 360.396 227.353Z" fill="#564E58"/>
<path opacity="0.1" d="M360.396 227.353C360.396 228.424 360.066 229.469 359.451 230.345C358.836 231.222 357.966 231.886 356.96 232.249C355.954 232.611 354.861 232.654 353.83 232.371C352.799 232.088 351.88 231.493 351.199 230.667L351.194 230.662C351.098 230.26 351.049 229.848 351.049 229.434C351.049 228.363 351.379 227.318 351.994 226.442C352.608 225.566 353.478 224.901 354.484 224.539C355.49 224.176 356.583 224.134 357.614 224.417C358.646 224.7 359.564 225.295 360.245 226.12C360.245 226.121 360.245 226.122 360.246 226.122C360.246 226.123 360.246 226.124 360.247 226.124C360.247 226.124 360.248 226.125 360.249 226.125C360.249 226.125 360.25 226.126 360.251 226.125C360.346 226.528 360.395 226.94 360.396 227.353Z" fill="black"/>
<path d="M357.28 235.677C360.148 235.677 362.473 233.348 362.473 230.475C362.473 227.602 360.148 225.272 357.28 225.272C354.412 225.272 352.087 227.602 352.087 230.475C352.087 233.348 354.412 235.677 357.28 235.677Z" fill="#564E58"/>
<path d="M270.037 24.9725H243.034V52.026H270.037V24.9725Z" fill="#F0F0F0"/>
<path d="M348.452 44.7423C347.22 44.7423 346.015 44.3762 344.99 43.6902C343.965 43.0042 343.166 42.0291 342.695 40.8883C342.223 39.7476 342.1 38.4923 342.34 37.2812C342.581 36.0702 343.174 34.9578 344.046 34.0847C344.917 33.2116 346.028 32.617 347.236 32.3761C348.445 32.1352 349.698 32.2588 350.837 32.7313C351.975 33.2039 352.949 34.0041 353.633 35.0307C354.318 36.0574 354.684 37.2644 354.684 38.4992C354.682 40.1544 354.025 41.7413 352.856 42.9117C351.688 44.0821 350.104 44.7405 348.452 44.7423ZM348.452 33.2966C347.425 33.2966 346.421 33.6018 345.567 34.1734C344.713 34.7451 344.047 35.5576 343.654 36.5083C343.261 37.4589 343.158 38.505 343.359 39.5142C343.559 40.5234 344.054 41.4504 344.78 42.178C345.506 42.9056 346.432 43.4011 347.439 43.6018C348.446 43.8026 349.49 43.6996 350.439 43.3058C351.388 42.912 352.199 42.2452 352.77 41.3896C353.341 40.5341 353.645 39.5282 353.645 38.4992C353.644 37.1199 353.096 35.7975 352.122 34.8222C351.149 33.8468 349.829 33.2982 348.452 33.2966Z" fill="#3F3D56"/>
<path d="M211.356 131.626H197.854V118.099H211.356V131.626ZM198.893 130.585H210.318V119.139H198.893V130.585Z" fill="#3F3D56"/>
<path d="M417 232.556H403.498V219.029H417V232.556ZM404.537 231.515H415.961V220.07H404.537V231.515Z" fill="#3F3D56"/>
<path d="M150.599 141.857L152.916 143.107L160.8 147.365L173.528 154.235L180.946 140.447C181.645 139.152 182.081 137.731 182.231 136.266C182.381 134.801 182.241 133.321 181.819 131.911C181.398 130.5 180.702 129.187 179.773 128.046C178.844 126.905 177.7 125.959 176.405 125.261C173.639 123.765 170.47 123.187 167.355 123.61C164.239 124.034 161.339 125.437 159.07 127.618L159.066 127.622C157.95 128.696 157.009 129.937 156.275 131.302L150.599 141.857Z" fill="#2F2E41"/>
<path d="M185.339 282.468L183.784 299.605L177.953 300.384L174.065 280.91L185.339 282.468Z" fill="#FFB8B8"/>
<path d="M176.398 300.384C176.398 300.384 183.784 296.489 185.339 299.605C185.339 299.605 184.173 308.953 188.838 310.121C193.503 311.289 195.447 319.469 188.838 320.248C182.229 321.026 177.953 318.69 175.62 318.69C173.287 318.69 175.62 310.51 175.62 310.51L176.398 300.384Z" fill="#2F2E41"/>
<path d="M138.299 282.468L139.854 299.605L145.685 300.384L149.573 280.91L138.299 282.468Z" fill="#FFB8B8"/>
<path d="M147.24 300.384C147.24 300.384 139.854 296.489 138.299 299.605C138.299 299.605 139.465 308.953 134.8 310.121C130.135 311.289 128.191 319.469 134.8 320.248C141.409 321.026 145.685 318.69 148.018 318.69C150.35 318.69 148.018 310.51 148.018 310.51L147.24 300.384Z" fill="#2F2E41"/>
<path d="M170.177 144.981C175.76 144.981 180.285 140.447 180.285 134.854C180.285 129.262 175.76 124.728 170.177 124.728C164.595 124.728 160.069 129.262 160.069 134.854C160.069 140.447 164.595 144.981 170.177 144.981Z" fill="#FFB8B8"/>
<path d="M137.91 154.718L146.074 167.571L155.793 166.792L171.732 167.96C171.732 167.96 173.237 164.946 174.465 162.013C175.138 160.548 175.655 159.017 176.009 157.444C176.398 154.718 170.955 151.992 170.955 151.992C170.955 151.992 170.741 151.953 170.383 151.867C169.909 151.754 169.178 151.567 168.377 151.294C166.57 150.679 164.396 149.635 163.957 148.097C163.18 145.37 169.011 141.476 169.011 141.476L162.013 134.854C162.013 134.854 155.797 143.505 148.247 145.476C147.809 145.591 147.365 145.682 146.917 145.748C146.894 145.752 146.875 145.756 146.851 145.76C138.687 146.928 137.91 154.718 137.91 154.718Z" fill="#FFB8B8"/>
<path d="M142.186 151.213L137.91 154.718C137.91 154.718 134.411 171.466 135.577 176.139C136.744 180.813 135.188 185.097 135.188 185.876C135.188 186.655 131.69 215.866 131.69 215.866C131.69 215.866 124.692 231.446 132.078 229.888C139.465 228.33 136.744 212.751 136.744 212.751L145.685 185.487V162.508L142.186 151.213Z" fill="#FFB8B8"/>
<path d="M172.899 154.328L176.009 156.665L177.564 189.382L189.227 217.424C189.227 217.424 197.78 231.056 192.337 231.446C186.894 231.835 183.395 217.424 183.395 217.424L172.899 190.55L171.344 164.455L172.899 154.328Z" fill="#FFB8B8"/>
<path d="M153.46 156.665C153.46 156.665 161.236 162.118 173.676 160.171C173.676 160.171 177.175 167.181 175.231 171.076C173.287 174.971 177.564 184.319 178.341 185.487C179.119 186.655 188.06 210.803 191.171 236.898C194.281 262.994 202.834 280.91 195.447 283.247C188.06 285.584 172.899 288.31 171.344 285.973C169.788 283.636 167.456 225.604 167.456 225.604L163.18 247.804C163.18 247.804 169.011 285.584 164.735 286.363C160.458 287.142 133.633 284.805 134.411 280.131C135.188 275.457 142.964 250.92 142.964 250.92C142.964 250.92 142.575 201.845 150.35 192.498C150.35 192.498 153.46 187.434 149.184 180.813C144.908 174.192 145.296 163.676 145.296 163.676C145.296 163.676 148.406 163.676 153.46 156.665Z" fill="#2F2E41"/>
<path d="M146.917 145.748L153.461 160.171L155.015 159.392L148.247 145.475L146.917 145.748Z" fill="#2F2E41"/>
<path d="M168.377 151.294L173.287 162.118L174.465 162.013L174.065 160.171L170.383 151.867C169.909 151.754 169.178 151.567 168.377 151.294Z" fill="#2F2E41"/>
<path d="M152.916 143.107C153.29 144.312 154.01 145.38 154.987 146.177C155.964 146.973 157.154 147.463 158.407 147.585C159.661 147.708 160.922 147.457 162.034 146.864C163.146 146.271 164.058 145.363 164.657 144.253C159.739 137.811 163.957 133.764 171.946 130.703C172.548 129.584 172.804 128.311 172.681 127.046C172.559 125.78 172.063 124.581 171.258 123.598C169.056 123.316 166.819 123.531 164.71 124.226C162.601 124.922 160.674 126.08 159.07 127.618L159.066 127.622L153.39 138.169C152.986 138.919 152.736 139.742 152.655 140.59C152.573 141.438 152.662 142.294 152.916 143.107Z" fill="#2F2E41"/>
<path d="M164.151 138.36C164.903 138.36 165.512 137.313 165.512 136.023C165.512 134.732 164.903 133.686 164.151 133.686C163.4 133.686 162.791 134.732 162.791 136.023C162.791 137.313 163.4 138.36 164.151 138.36Z" fill="#FFB8B8"/>
<path d="M168.206 132.21L179.893 137.515L182.035 132.778C181.666 131.047 180.893 129.429 179.78 128.054L171.736 124.405L168.206 132.21Z" fill="#2F2E41"/>
<path d="M196.296 236.718C199.164 236.718 201.489 234.389 201.489 231.515C201.489 228.642 199.164 226.313 196.296 226.313C193.428 226.313 191.103 228.642 191.103 231.515C191.103 234.389 193.428 236.718 196.296 236.718Z" fill="#564E58"/>
<path d="M29.5777 267.646C31.452 267.646 32.9715 266.123 32.9715 264.246C32.9715 262.368 31.452 260.845 29.5777 260.845C27.7033 260.845 26.1838 262.368 26.1838 264.246C26.1838 266.123 27.7033 267.646 29.5777 267.646Z" fill="#FF6584"/>
<path d="M46.7243 281.966H45.6857V320.679H46.7243V281.966Z" fill="#3F3D56"/>
<path d="M46.2051 287.441C49.2231 287.441 51.6696 284.99 51.6696 281.966C51.6696 278.943 49.2231 276.492 46.2051 276.492C43.1871 276.492 40.7406 278.943 40.7406 281.966C40.7406 284.99 43.1871 287.441 46.2051 287.441Z" fill="#3F3D56"/>
<path d="M46.2051 305.826C46.2051 305.826 45.4244 289.005 29.4212 290.96L46.2051 305.826Z" fill="#3F3D56"/>
</svg>
